<svg xmlns="http://www.w3.org/2000/svg" viewBox="0 0 64 64">
  <defs>
    <linearGradient id="faviconGrad" x1="0%" y1="0%" x2="100%" y2="100%">
      <stop offset="0%" style="stop-color:#2d3748;stop-opacity:1" />
      <stop offset="100%" style="stop-color:#5dade2;stop-opacity:1" />
    </linearGradient>
  </defs>

  <!-- Background with gradient -->
  <rect width="64" height="64" rx="12" fill="url(#faviconGrad)"/>

  <!-- HR Letters Icon -->
  <g fill="white">
    <!-- Letter H -->
    <rect x="14" y="20" width="4" height="24" rx="2"/>
    <rect x="14" y="30" width="12" height="4" rx="2"/>
    <rect x="22" y="20" width="4" height="24" rx="2"/>

    <!-- Letter R -->
    <path d="M 32 20 L 32 44 L 36 44 L 36 33 L 42 33 C 45 33 47 31 47 28 L 47 25 C 47 22 45 20 42 20 Z M 36 24 L 42 24 C 42.5 24 43 24.5 43 25 L 43 28 C 43 28.5 42.5 29 42 29 L 36 29 Z"/>
    <line x1="42" y1="33" x2="48" y2="44" stroke="white" stroke-width="4" stroke-linecap="round"/>
  </g>
</svg>
