<svg xmlns="http://www.w3.org/2000/svg" viewBox="0 0 200 200">
  <defs>
    <linearGradient id="logoGrad" x1="0%" y1="0%" x2="100%" y2="100%">
      <stop offset="0%" style="stop-color:#2d3748;stop-opacity:1" />
      <stop offset="100%" style="stop-color:#5dade2;stop-opacity:1" />
    </linearGradient>
  </defs>

  <!-- Background Circle -->
  <circle cx="100" cy="100" r="95" fill="url(#logoGrad)"/>

  <!-- HR Text -->
  <g fill="white" font-family="Arial, sans-serif" font-weight="bold">
    <!-- Letter H -->
    <rect x="45" y="60" width="12" height="80" rx="3"/>
    <rect x="45" y="95" width="40" height="12" rx="3"/>
    <rect x="73" y="60" width="12" height="80" rx="3"/>

    <!-- Letter R -->
    <path d="M 105 60 L 105 140 L 117 140 L 117 105 L 140 105 C 150 105 155 100 155 90 L 155 75 C 155 65 150 60 140 60 Z M 117 72 L 140 72 C 143 72 145 74 145 77 L 145 88 C 145 91 143 93 140 93 L 117 93 Z" fill="white"/>
    <line x1="140" y1="105" x2="155" y2="140" stroke="white" stroke-width="12" stroke-linecap="round"/>
  </g>

  <!-- Bottom accent line -->
  <path d="M 30 160 L 170 160" stroke="white" stroke-width="3" stroke-linecap="round" opacity="0.8"/>
</svg>
